<?xml version="1.0" encoding="UTF-8" standalone="no"?>
<!DOCTYPE svg PUBLIC "-//W3C//DTD SVG 1.1//EN"
 "http://www.w3.org/Graphics/SVG/1.1/DTD/svg11.dtd">
<!-- Generated by graphviz version 2.40.1 (20161225.0304)
 -->
<!-- Title: G Pages: 1 -->
<svg width="955pt" height="989pt"
 viewBox="0.00 0.00 1145.97 1187.00" xmlns="http://www.w3.org/2000/svg" xmlns:xlink="http://www.w3.org/1999/xlink">
<g id="graph0" class="graph" transform="scale(.8333 .8333) rotate(0) translate(4 1183)">
<title>G</title>
<polygon fill="#ffffff" stroke="transparent" points="-4,4 -4,-1183 1141.9678,-1183 1141.9678,4 -4,4"/>
<!-- 4413996368 -->
<g id="node1" class="node">
<title>4413996368</title>
<polygon fill="none" stroke="#000000" points="460.1216,-1134.5 460.1216,-1178.5 676.8462,-1178.5 676.8462,-1134.5 460.1216,-1134.5"/>
<text text-anchor="middle" x="499.2183" y="-1152.3" font-family="Times,serif" font-size="14.00" fill="#000000">InputLayer</text>
<polyline fill="none" stroke="#000000" points="538.3149,-1134.5 538.3149,-1178.5 "/>
<text text-anchor="middle" x="566.1494" y="-1163.3" font-family="Times,serif" font-size="14.00" fill="#000000">input:</text>
<polyline fill="none" stroke="#000000" points="538.3149,-1156.5 593.9839,-1156.5 "/>
<text text-anchor="middle" x="566.1494" y="-1141.3" font-family="Times,serif" font-size="14.00" fill="#000000">output:</text>
<polyline fill="none" stroke="#000000" points="593.9839,-1134.5 593.9839,-1178.5 "/>
<text text-anchor="middle" x="635.415" y="-1163.3" font-family="Times,serif" font-size="14.00" fill="#000000">[(?, 512, 4)]</text>
<polyline fill="none" stroke="#000000" points="593.9839,-1156.5 676.8462,-1156.5 "/>
<text text-anchor="middle" x="635.415" y="-1141.3" font-family="Times,serif" font-size="14.00" fill="#000000">[(?, 512, 4)]</text>
</g>
<!-- 5239178640 -->
<g id="node2" class="node">
<title>5239178640</title>
<polygon fill="none" stroke="#000000" points="0,-1053.5 0,-1097.5 270.9678,-1097.5 270.9678,-1053.5 0,-1053.5"/>
<text text-anchor="middle" x="66.2183" y="-1071.3" font-family="Times,serif" font-size="14.00" fill="#000000">TensorFlowOpLayer</text>
<polyline fill="none" stroke="#000000" points="132.4365,-1053.5 132.4365,-1097.5 "/>
<text text-anchor="middle" x="160.271" y="-1082.3" font-family="Times,serif" font-size="14.00" fill="#000000">input:</text>
<polyline fill="none" stroke="#000000" points="132.4365,-1075.5 188.1055,-1075.5 "/>
<text text-anchor="middle" x="160.271" y="-1060.3" font-family="Times,serif" font-size="14.00" fill="#000000">output:</text>
<polyline fill="none" stroke="#000000" points="188.1055,-1053.5 188.1055,-1097.5 "/>
<text text-anchor="middle" x="229.5366" y="-1082.3" font-family="Times,serif" font-size="14.00" fill="#000000">[(?, 512, 4)]</text>
<polyline fill="none" stroke="#000000" points="188.1055,-1075.5 270.9678,-1075.5 "/>
<text text-anchor="middle" x="229.5366" y="-1060.3" font-family="Times,serif" font-size="14.00" fill="#000000">[(?, 512, 1)]</text>
</g>
<!-- 4413996368&#45;&gt;5239178640 -->
<g id="edge1" class="edge">
<title>4413996368&#45;&gt;5239178640</title>
<path fill="none" stroke="#000000" d="M460.0577,-1136.217C400.2556,-1125.03 325.6571,-1111.0751 263.0616,-1099.3656"/>
<polygon fill="#000000" stroke="#000000" points="263.5956,-1095.9048 253.1225,-1097.5063 262.3084,-1102.7855 263.5956,-1095.9048"/>
</g>
<!-- 5240098320 -->
<g id="node3" class="node">
<title>5240098320</title>
<polygon fill="none" stroke="#000000" points="289,-1053.5 289,-1097.5 559.9678,-1097.5 559.9678,-1053.5 289,-1053.5"/>
<text text-anchor="middle" x="355.2183" y="-1071.3" font-family="Times,serif" font-size="14.00" fill="#000000">TensorFlowOpLayer</text>
<polyline fill="none" stroke="#000000" points="421.4365,-1053.5 421.4365,-1097.5 "/>
<text text-anchor="middle" x="449.271" y="-1082.3" font-family="Times,serif" font-size="14.00" fill="#000000">input:</text>
<polyline fill="none" stroke="#000000" points="421.4365,-1075.5 477.1055,-1075.5 "/>
<text text-anchor="middle" x="449.271" y="-1060.3" font-family="Times,serif" font-size="14.00" fill="#000000">output:</text>
<polyline fill="none" stroke="#000000" points="477.1055,-1053.5 477.1055,-1097.5 "/>
<text text-anchor="middle" x="518.5366" y="-1082.3" font-family="Times,serif" font-size="14.00" fill="#000000">[(?, 512, 4)]</text>
<polyline fill="none" stroke="#000000" points="477.1055,-1075.5 559.9678,-1075.5 "/>
<text text-anchor="middle" x="518.5366" y="-1060.3" font-family="Times,serif" font-size="14.00" fill="#000000">[(?, 512, 1)]</text>
</g>
<!-- 4413996368&#45;&gt;5240098320 -->
<g id="edge2" class="edge">
<title>4413996368&#45;&gt;5240098320</title>
<path fill="none" stroke="#000000" d="M529.1353,-1134.3664C511.674,-1124.5444 490.9621,-1112.894 472.591,-1102.5602"/>
<polygon fill="#000000" stroke="#000000" points="474.2166,-1099.459 463.7849,-1097.6068 470.7848,-1105.56 474.2166,-1099.459"/>
</g>
<!-- 5244993744 -->
<g id="node4" class="node">
<title>5244993744</title>
<polygon fill="none" stroke="#000000" points="578,-1053.5 578,-1097.5 848.9678,-1097.5 848.9678,-1053.5 578,-1053.5"/>
<text text-anchor="middle" x="644.2183" y="-1071.3" font-family="Times,serif" font-size="14.00" fill="#000000">TensorFlowOpLayer</text>
<polyline fill="none" stroke="#000000" points="710.4365,-1053.5 710.4365,-1097.5 "/>
<text text-anchor="middle" x="738.271" y="-1082.3" font-family="Times,serif" font-size="14.00" fill="#000000">input:</text>
<polyline fill="none" stroke="#000000" points="710.4365,-1075.5 766.1055,-1075.5 "/>
<text text-anchor="middle" x="738.271" y="-1060.3" font-family="Times,serif" font-size="14.00" fill="#000000">output:</text>
<polyline fill="none" stroke="#000000" points="766.1055,-1053.5 766.1055,-1097.5 "/>
<text text-anchor="middle" x="807.5366" y="-1082.3" font-family="Times,serif" font-size="14.00" fill="#000000">[(?, 512, 4)]</text>
<polyline fill="none" stroke="#000000" points="766.1055,-1075.5 848.9678,-1075.5 "/>
<text text-anchor="middle" x="807.5366" y="-1060.3" font-family="Times,serif" font-size="14.00" fill="#000000">[(?, 512, 1)]</text>
</g>
<!-- 4413996368&#45;&gt;5244993744 -->
<g id="edge3" class="edge">
<title>4413996368&#45;&gt;5244993744</title>
<path fill="none" stroke="#000000" d="M608.1058,-1134.3664C625.6883,-1124.5444 646.544,-1112.894 665.0427,-1102.5602"/>
<polygon fill="#000000" stroke="#000000" points="666.8866,-1105.5393 673.9099,-1097.6068 663.4728,-1099.4282 666.8866,-1105.5393"/>
</g>
<!-- 5247562128 -->
<g id="node5" class="node">
<title>5247562128</title>
<polygon fill="none" stroke="#000000" points="867,-1053.5 867,-1097.5 1137.9678,-1097.5 1137.9678,-1053.5 867,-1053.5"/>
<text text-anchor="middle" x="933.2183" y="-1071.3" font-family="Times,serif" font-size="14.00" fill="#000000">TensorFlowOpLayer</text>
<polyline fill="none" stroke="#000000" points="999.4365,-1053.5 999.4365,-1097.5 "/>
<text text-anchor="middle" x="1027.271" y="-1082.3" font-family="Times,serif" font-size="14.00" fill="#000000">input:</text>
<polyline fill="none" stroke="#000000" points="999.4365,-1075.5 1055.1055,-1075.5 "/>
<text text-anchor="middle" x="1027.271" y="-1060.3" font-family="Times,serif" font-size="14.00" fill="#000000">output:</text>
<polyline fill="none" stroke="#000000" points="1055.1055,-1053.5 1055.1055,-1097.5 "/>
<text text-anchor="middle" x="1096.5366" y="-1082.3" font-family="Times,serif" font-size="14.00" fill="#000000">[(?, 512, 4)]</text>
<polyline fill="none" stroke="#000000" points="1055.1055,-1075.5 1137.9678,-1075.5 "/>
<text text-anchor="middle" x="1096.5366" y="-1060.3" font-family="Times,serif" font-size="14.00" fill="#000000">[(?, 512, 1)]</text>
</g>
<!-- 4413996368&#45;&gt;5247562128 -->
<g id="edge4" class="edge">
<title>4413996368&#45;&gt;5247562128</title>
<path fill="none" stroke="#000000" d="M676.8809,-1136.2692C736.8184,-1125.0827 811.6498,-1111.1165 874.4553,-1099.3947"/>
<polygon fill="#000000" stroke="#000000" points="875.2397,-1102.8089 884.4278,-1097.5335 873.9554,-1095.9277 875.2397,-1102.8089"/>
</g>
<!-- 5238897744 -->
<g id="node6" class="node">
<title>5238897744</title>
<polygon fill="none" stroke="#000000" points="64.1563,-972.5 64.1563,-1016.5 270.8115,-1016.5 270.8115,-972.5 64.1563,-972.5"/>
<text text-anchor="middle" x="95.8804" y="-990.3" font-family="Times,serif" font-size="14.00" fill="#000000">Conv1D</text>
<polyline fill="none" stroke="#000000" points="127.6045,-972.5 127.6045,-1016.5 "/>
<text text-anchor="middle" x="155.439" y="-1001.3" font-family="Times,serif" font-size="14.00" fill="#000000">input:</text>
<polyline fill="none" stroke="#000000" points="127.6045,-994.5 183.2734,-994.5 "/>
<text text-anchor="middle" x="155.439" y="-979.3" font-family="Times,serif" font-size="14.00" fill="#000000">output:</text>
<polyline fill="none" stroke="#000000" points="183.2734,-972.5 183.2734,-1016.5 "/>
<text text-anchor="middle" x="227.0425" y="-1001.3" font-family="Times,serif" font-size="14.00" fill="#000000">(?, 512, 1)</text>
<polyline fill="none" stroke="#000000" points="183.2734,-994.5 270.8115,-994.5 "/>
<text text-anchor="middle" x="227.0425" y="-979.3" font-family="Times,serif" font-size="14.00" fill="#000000">(?, 128, 128)</text>
</g>
<!-- 5239178640&#45;&gt;5238897744 -->
<g id="edge5" class="edge">
<title>5239178640&#45;&gt;5238897744</title>
<path fill="none" stroke="#000000" d="M144.228,-1053.3664C147.5439,-1044.9731 151.3873,-1035.2445 154.9828,-1026.1434"/>
<polygon fill="#000000" stroke="#000000" points="158.3312,-1027.1934 158.7503,-1016.6068 151.8208,-1024.6214 158.3312,-1027.1934"/>
</g>
<!-- 5240016656 -->
<g id="node7" class="node">
<title>5240016656</title>
<polygon fill="none" stroke="#000000" points="329.1563,-972.5 329.1563,-1016.5 535.8115,-1016.5 535.8115,-972.5 329.1563,-972.5"/>
<text text-anchor="middle" x="360.8804" y="-990.3" font-family="Times,serif" font-size="14.00" fill="#000000">Conv1D</text>
<polyline fill="none" stroke="#000000" points="392.6045,-972.5 392.6045,-1016.5 "/>
<text text-anchor="middle" x="420.439" y="-1001.3" font-family="Times,serif" font-size="14.00" fill="#000000">input:</text>
<polyline fill="none" stroke="#000000" points="392.6045,-994.5 448.2734,-994.5 "/>
<text text-anchor="middle" x="420.439" y="-979.3" font-family="Times,serif" font-size="14.00" fill="#000000">output:</text>
<polyline fill="none" stroke="#000000" points="448.2734,-972.5 448.2734,-1016.5 "/>
<text text-anchor="middle" x="492.0425" y="-1001.3" font-family="Times,serif" font-size="14.00" fill="#000000">(?, 512, 1)</text>
<polyline fill="none" stroke="#000000" points="448.2734,-994.5 535.8115,-994.5 "/>
<text text-anchor="middle" x="492.0425" y="-979.3" font-family="Times,serif" font-size="14.00" fill="#000000">(?, 128, 128)</text>
</g>
<!-- 5240098320&#45;&gt;5240016656 -->
<g id="edge6" class="edge">
<title>5240098320&#45;&gt;5240016656</title>
<path fill="none" stroke="#000000" d="M426.6699,-1053.3664C427.4813,-1045.1516 428.4189,-1035.6579 429.3012,-1026.7252"/>
<polygon fill="#000000" stroke="#000000" points="432.8006,-1026.9025 430.3005,-1016.6068 425.8345,-1026.2144 432.8006,-1026.9025"/>
</g>
<!-- 5243599312 -->
<g id="node8" class="node">
<title>5243599312</title>
<polygon fill="none" stroke="#000000" points="606.1563,-972.5 606.1563,-1016.5 812.8115,-1016.5 812.8115,-972.5 606.1563,-972.5"/>
<text text-anchor="middle" x="637.8804" y="-990.3" font-family="Times,serif" font-size="14.00" fill="#000000">Conv1D</text>
<polyline fill="none" stroke="#000000" points="669.6045,-972.5 669.6045,-1016.5 "/>
<text text-anchor="middle" x="697.439" y="-1001.3" font-family="Times,serif" font-size="14.00" fill="#000000">input:</text>
<polyline fill="none" stroke="#000000" points="669.6045,-994.5 725.2734,-994.5 "/>
<text text-anchor="middle" x="697.439" y="-979.3" font-family="Times,serif" font-size="14.00" fill="#000000">output:</text>
<polyline fill="none" stroke="#000000" points="725.2734,-972.5 725.2734,-1016.5 "/>
<text text-anchor="middle" x="769.0425" y="-1001.3" font-family="Times,serif" font-size="14.00" fill="#000000">(?, 512, 1)</text>
<polyline fill="none" stroke="#000000" points="725.2734,-994.5 812.8115,-994.5 "/>
<text text-anchor="middle" x="769.0425" y="-979.3" font-family="Times,serif" font-size="14.00" fill="#000000">(?, 128, 128)</text>
</g>
<!-- 5244993744&#45;&gt;5243599312 -->
<g id="edge7" class="edge">
<title>5244993744&#45;&gt;5243599312</title>
<path fill="none" stroke="#000000" d="M712.3909,-1053.3664C711.9852,-1045.1516 711.5164,-1035.6579 711.0753,-1026.7252"/>
<polygon fill="#000000" stroke="#000000" points="714.5646,-1026.422 710.5756,-1016.6068 707.5732,-1026.7673 714.5646,-1026.422"/>
</g>
<!-- 5246205264 -->
<g id="node9" class="node">
<title>5246205264</title>
<polygon fill="none" stroke="#000000" points="879.1563,-972.5 879.1563,-1016.5 1085.8115,-1016.5 1085.8115,-972.5 879.1563,-972.5"/>
<text text-anchor="middle" x="910.8804" y="-990.3" font-family="Times,serif" font-size="14.00" fill="#000000">Conv1D</text>
<polyline fill="none" stroke="#000000" points="942.6045,-972.5 942.6045,-1016.5 "/>
<text text-anchor="middle" x="970.439" y="-1001.3" font-family="Times,serif" font-size="14.00" fill="#000000">input:</text>
<polyline fill="none" stroke="#000000" points="942.6045,-994.5 998.2734,-994.5 "/>
<text text-anchor="middle" x="970.439" y="-979.3" font-family="Times,serif" font-size="14.00" fill="#000000">output:</text>
<polyline fill="none" stroke="#000000" points="998.2734,-972.5 998.2734,-1016.5 "/>
<text text-anchor="middle" x="1042.0425" y="-1001.3" font-family="Times,serif" font-size="14.00" fill="#000000">(?, 512, 1)</text>
<polyline fill="none" stroke="#000000" points="998.2734,-994.5 1085.8115,-994.5 "/>
<text text-anchor="middle" x="1042.0425" y="-979.3" font-family="Times,serif" font-size="14.00" fill="#000000">(?, 128, 128)</text>
</g>
<!-- 5247562128&#45;&gt;5246205264 -->
<g id="edge8" class="edge">
<title>5247562128&#45;&gt;5246205264</title>
<path fill="none" stroke="#000000" d="M997.0188,-1053.3664C994.9684,-1045.0624 992.5953,-1035.4514 990.3688,-1026.4341"/>
<polygon fill="#000000" stroke="#000000" points="993.7375,-1025.4763 987.9424,-1016.6068 986.9416,-1027.1543 993.7375,-1025.4763"/>
</g>
<!-- 5238989072 -->
<g id="node10" class="node">
<title>5238989072</title>
<polygon fill="none" stroke="#000000" points="104.1563,-891.5 104.1563,-935.5 310.8115,-935.5 310.8115,-891.5 104.1563,-891.5"/>
<text text-anchor="middle" x="135.8804" y="-909.3" font-family="Times,serif" font-size="14.00" fill="#000000">Conv1D</text>
<polyline fill="none" stroke="#000000" points="167.6045,-891.5 167.6045,-935.5 "/>
<text text-anchor="middle" x="195.439" y="-920.3" font-family="Times,serif" font-size="14.00" fill="#000000">input:</text>
<polyline fill="none" stroke="#000000" points="167.6045,-913.5 223.2734,-913.5 "/>
<text text-anchor="middle" x="195.439" y="-898.3" font-family="Times,serif" font-size="14.00" fill="#000000">output:</text>
<polyline fill="none" stroke="#000000" points="223.2734,-891.5 223.2734,-935.5 "/>
<text text-anchor="middle" x="267.0425" y="-920.3" font-family="Times,serif" font-size="14.00" fill="#000000">(?, 128, 128)</text>
<polyline fill="none" stroke="#000000" points="223.2734,-913.5 310.8115,-913.5 "/>
<text text-anchor="middle" x="267.0425" y="-898.3" font-family="Times,serif" font-size="14.00" fill="#000000">(?, 32, 128)</text>
</g>
<!-- 5238897744&#45;&gt;5238989072 -->
<g id="edge9" class="edge">
<title>5238897744&#45;&gt;5238989072</title>
<path fill="none" stroke="#000000" d="M178.4141,-972.3664C182.603,-963.8838 187.4654,-954.0374 192.0008,-944.8532"/>
<polygon fill="#000000" stroke="#000000" points="195.2773,-946.1229 196.5669,-935.6068 189.0009,-943.0234 195.2773,-946.1229"/>
</g>
<!-- 5240228816 -->
<g id="node11" class="node">
<title>5240228816</title>
<polygon fill="none" stroke="#000000" points="361.1563,-891.5 361.1563,-935.5 567.8115,-935.5 567.8115,-891.5 361.1563,-891.5"/>
<text text-anchor="middle" x="392.8804" y="-909.3" font-family="Times,serif" font-size="14.00" fill="#000000">Conv1D</text>
<polyline fill="none" stroke="#000000" points="424.6045,-891.5 424.6045,-935.5 "/>
<text text-anchor="middle" x="452.439" y="-920.3" font-family="Times,serif" font-size="14.00" fill="#000000">input:</text>
<polyline fill="none" stroke="#000000" points="424.6045,-913.5 480.2734,-913.5 "/>
<text text-anchor="middle" x="452.439" y="-898.3" font-family="Times,serif" font-size="14.00" fill="#000000">output:</text>
<polyline fill="none" stroke="#000000" points="480.2734,-891.5 480.2734,-935.5 "/>
<text text-anchor="middle" x="524.0425" y="-920.3" font-family="Times,serif" font-size="14.00" fill="#000000">(?, 128, 128)</text>
<polyline fill="none" stroke="#000000" points="480.2734,-913.5 567.8115,-913.5 "/>
<text text-anchor="middle" x="524.0425" y="-898.3" font-family="Times,serif" font-size="14.00" fill="#000000">(?, 32, 128)</text>
</g>
<!-- 5240016656&#45;&gt;5240228816 -->
<g id="edge10" class="edge">
<title>5240016656&#45;&gt;5240228816</title>
<path fill="none" stroke="#000000" d="M441.228,-972.3664C444.5439,-963.9731 448.3873,-954.2445 451.9828,-945.1434"/>
<polygon fill="#000000" stroke="#000000" points="455.3312,-946.1934 455.7503,-935.6068 448.8208,-943.6214 455.3312,-946.1934"/>
</g>
<!-- 5244879504 -->
<g id="node12" class="node">
<title>5244879504</title>
<polygon fill="none" stroke="#000000" points="602.1563,-891.5 602.1563,-935.5 808.8115,-935.5 808.8115,-891.5 602.1563,-891.5"/>
<text text-anchor="middle" x="633.8804" y="-909.3" font-family="Times,serif" font-size="14.00" fill="#000000">Conv1D</text>
<polyline fill="none" stroke="#000000" points="665.6045,-891.5 665.6045,-935.5 "/>
<text text-anchor="middle" x="693.439" y="-920.3" font-family="Times,serif" font-size="14.00" fill="#000000">input:</text>
<polyline fill="none" stroke="#000000" points="665.6045,-913.5 721.2734,-913.5 "/>
<text text-anchor="middle" x="693.439" y="-898.3" font-family="Times,serif" font-size="14.00" fill="#000000">output:</text>
<polyline fill="none" stroke="#000000" points="721.2734,-891.5 721.2734,-935.5 "/>
<text text-anchor="middle" x="765.0425" y="-920.3" font-family="Times,serif" font-size="14.00" fill="#000000">(?, 128, 128)</text>
<polyline fill="none" stroke="#000000" points="721.2734,-913.5 808.8115,-913.5 "/>
<text text-anchor="middle" x="765.0425" y="-898.3" font-family="Times,serif" font-size="14.00" fill="#000000">(?, 32, 128)</text>
</g>
<!-- 5243599312&#45;&gt;5244879504 -->
<g id="edge11" class="edge">
<title>5243599312&#45;&gt;5244879504</title>
<path fill="none" stroke="#000000" d="M708.3909,-972.3664C707.9852,-964.1516 707.5164,-954.6579 707.0753,-945.7252"/>
<polygon fill="#000000" stroke="#000000" points="710.5646,-945.422 706.5756,-935.6068 703.5732,-945.7673 710.5646,-945.422"/>
</g>
<!-- 5247449872 -->
<g id="node13" class="node">
<title>5247449872</title>
<polygon fill="none" stroke="#000000" points="851.1563,-891.5 851.1563,-935.5 1057.8115,-935.5 1057.8115,-891.5 851.1563,-891.5"/>
<text text-anchor="middle" x="882.8804" y="-909.3" font-family="Times,serif" font-size="14.00" fill="#000000">Conv1D</text>
<polyline fill="none" stroke="#000000" points="914.6045,-891.5 914.6045,-935.5 "/>
<text text-anchor="middle" x="942.439" y="-920.3" font-family="Times,serif" font-size="14.00" fill="#000000">input:</text>
<polyline fill="none" stroke="#000000" points="914.6045,-913.5 970.2734,-913.5 "/>
<text text-anchor="middle" x="942.439" y="-898.3" font-family="Times,serif" font-size="14.00" fill="#000000">output:</text>
<polyline fill="none" stroke="#000000" points="970.2734,-891.5 970.2734,-935.5 "/>
<text text-anchor="middle" x="1014.0425" y="-920.3" font-family="Times,serif" font-size="14.00" fill="#000000">(?, 128, 128)</text>
<polyline fill="none" stroke="#000000" points="970.2734,-913.5 1057.8115,-913.5 "/>
<text text-anchor="middle" x="1014.0425" y="-898.3" font-family="Times,serif" font-size="14.00" fill="#000000">(?, 32, 128)</text>
</g>
<!-- 5246205264&#45;&gt;5247449872 -->
<g id="edge12" class="edge">
<title>5246205264&#45;&gt;5247449872</title>
<path fill="none" stroke="#000000" d="M974.8328,-972.3664C971.9314,-963.9731 968.5684,-954.2445 965.4223,-945.1434"/>
<polygon fill="#000000" stroke="#000000" points="968.7009,-943.9146 962.1258,-935.6068 962.085,-946.2016 968.7009,-943.9146"/>
</g>
<!-- 5239179728 -->
<g id="node14" class="node">
<title>5239179728</title>
<polygon fill="none" stroke="#000000" points="133.6563,-810.5 133.6563,-854.5 333.3115,-854.5 333.3115,-810.5 133.6563,-810.5"/>
<text text-anchor="middle" x="165.3804" y="-828.3" font-family="Times,serif" font-size="14.00" fill="#000000">Conv1D</text>
<polyline fill="none" stroke="#000000" points="197.1045,-810.5 197.1045,-854.5 "/>
<text text-anchor="middle" x="224.939" y="-839.3" font-family="Times,serif" font-size="14.00" fill="#000000">input:</text>
<polyline fill="none" stroke="#000000" points="197.1045,-832.5 252.7734,-832.5 "/>
<text text-anchor="middle" x="224.939" y="-817.3" font-family="Times,serif" font-size="14.00" fill="#000000">output:</text>
<polyline fill="none" stroke="#000000" points="252.7734,-810.5 252.7734,-854.5 "/>
<text text-anchor="middle" x="293.0425" y="-839.3" font-family="Times,serif" font-size="14.00" fill="#000000">(?, 32, 128)</text>
<polyline fill="none" stroke="#000000" points="252.7734,-832.5 333.3115,-832.5 "/>
<text text-anchor="middle" x="293.0425" y="-817.3" font-family="Times,serif" font-size="14.00" fill="#000000">(?, 8, 128)</text>
</g>
<!-- 5238989072&#45;&gt;5239179728 -->
<g id="edge13" class="edge">
<title>5238989072&#45;&gt;5239179728</title>
<path fill="none" stroke="#000000" d="M214.5885,-891.3664C217.2827,-882.9731 220.4054,-873.2445 223.3267,-864.1434"/>
<polygon fill="#000000" stroke="#000000" points="226.664,-865.1981 226.3879,-854.6068 219.999,-863.0586 226.664,-865.1981"/>
</g>
<!-- 5243526672 -->
<g id="node15" class="node">
<title>5243526672</title>
<polygon fill="none" stroke="#000000" points="370.6563,-810.5 370.6563,-854.5 570.3115,-854.5 570.3115,-810.5 370.6563,-810.5"/>
<text text-anchor="middle" x="402.3804" y="-828.3" font-family="Times,serif" font-size="14.00" fill="#000000">Conv1D</text>
<polyline fill="none" stroke="#000000" points="434.1045,-810.5 434.1045,-854.5 "/>
<text text-anchor="middle" x="461.939" y="-839.3" font-family="Times,serif" font-size="14.00" fill="#000000">input:</text>
<polyline fill="none" stroke="#000000" points="434.1045,-832.5 489.7734,-832.5 "/>
<text text-anchor="middle" x="461.939" y="-817.3" font-family="Times,serif" font-size="14.00" fill="#000000">output:</text>
<polyline fill="none" stroke="#000000" points="489.7734,-810.5 489.7734,-854.5 "/>
<text text-anchor="middle" x="530.0425" y="-839.3" font-family="Times,serif" font-size="14.00" fill="#000000">(?, 32, 128)</text>
<polyline fill="none" stroke="#000000" points="489.7734,-832.5 570.3115,-832.5 "/>
<text text-anchor="middle" x="530.0425" y="-817.3" font-family="Times,serif" font-size="14.00" fill="#000000">(?, 8, 128)</text>
</g>
<!-- 5240228816&#45;&gt;5243526672 -->
<g id="edge14" class="edge">
<title>5240228816&#45;&gt;5243526672</title>
<path fill="none" stroke="#000000" d="M466.1234,-891.3664C466.7319,-883.1516 467.4352,-873.6579 468.0968,-864.7252"/>
<polygon fill="#000000" stroke="#000000" points="471.598,-864.8381 468.8463,-854.6068 464.6171,-864.3209 471.598,-864.8381"/>
</g>
<!-- 5246088720 -->
<g id="node16" class="node">
<title>5246088720</title>
<polygon fill="none" stroke="#000000" points="599.6563,-810.5 599.6563,-854.5 799.3115,-854.5 799.3115,-810.5 599.6563,-810.5"/>
<text text-anchor="middle" x="631.3804" y="-828.3" font-family="Times,serif" font-size="14.00" fill="#000000">Conv1D</text>
<polyline fill="none" stroke="#000000" points="663.1045,-810.5 663.1045,-854.5 "/>
<text text-anchor="middle" x="690.939" y="-839.3" font-family="Times,serif" font-size="14.00" fill="#000000">input:</text>
<polyline fill="none" stroke="#000000" points="663.1045,-832.5 718.7734,-832.5 "/>
<text text-anchor="middle" x="690.939" y="-817.3" font-family="Times,serif" font-size="14.00" fill="#000000">output:</text>
<polyline fill="none" stroke="#000000" points="718.7734,-810.5 718.7734,-854.5 "/>
<text text-anchor="middle" x="759.0425" y="-839.3" font-family="Times,serif" font-size="14.00" fill="#000000">(?, 32, 128)</text>
<polyline fill="none" stroke="#000000" points="718.7734,-832.5 799.3115,-832.5 "/>
<text text-anchor="middle" x="759.0425" y="-817.3" font-family="Times,serif" font-size="14.00" fill="#000000">(?, 8, 128)</text>
</g>
<!-- 5244879504&#45;&gt;5246088720 -->
<g id="edge15" class="edge">
<title>5244879504&#45;&gt;5246088720</title>
<path fill="none" stroke="#000000" d="M703.8444,-891.3664C703.2359,-883.1516 702.5326,-873.6579 701.8709,-864.7252"/>
<polygon fill="#000000" stroke="#000000" points="705.3507,-864.3209 701.1214,-854.6068 698.3698,-864.8381 705.3507,-864.3209"/>
</g>
<!-- 5247597328 -->
<g id="node17" class="node">
<title>5247597328</title>
<polygon fill="none" stroke="#000000" points="838.6563,-810.5 838.6563,-854.5 1038.3115,-854.5 1038.3115,-810.5 838.6563,-810.5"/>
<text text-anchor="middle" x="870.3804" y="-828.3" font-family="Times,serif" font-size="14.00" fill="#000000">Conv1D</text>
<polyline fill="none" stroke="#000000" points="902.1045,-810.5 902.1045,-854.5 "/>
<text text-anchor="middle" x="929.939" y="-839.3" font-family="Times,serif" font-size="14.00" fill="#000000">input:</text>
<polyline fill="none" stroke="#000000" points="902.1045,-832.5 957.7734,-832.5 "/>
<text text-anchor="middle" x="929.939" y="-817.3" font-family="Times,serif" font-size="14.00" fill="#000000">output:</text>
<polyline fill="none" stroke="#000000" points="957.7734,-810.5 957.7734,-854.5 "/>
<text text-anchor="middle" x="998.0425" y="-839.3" font-family="Times,serif" font-size="14.00" fill="#000000">(?, 32, 128)</text>
<polyline fill="none" stroke="#000000" points="957.7734,-832.5 1038.3115,-832.5 "/>
<text text-anchor="middle" x="998.0425" y="-817.3" font-family="Times,serif" font-size="14.00" fill="#000000">(?, 8, 128)</text>
</g>
<!-- 5247449872&#45;&gt;5247597328 -->
<g id="edge16" class="edge">
<title>5247449872&#45;&gt;5247597328</title>
<path fill="none" stroke="#000000" d="M950.1118,-891.3664C948.4715,-883.0624 946.573,-873.4514 944.7919,-864.4341"/>
<polygon fill="#000000" stroke="#000000" points="948.2223,-863.739 942.8507,-854.6068 941.355,-865.0956 948.2223,-863.739"/>
</g>
<!-- 5238790352 -->
<g id="node18" class="node">
<title>5238790352</title>
<polygon fill="none" stroke="#000000" points="375.8179,-729.5 375.8179,-773.5 793.1499,-773.5 793.1499,-729.5 375.8179,-729.5"/>
<text text-anchor="middle" x="418.4111" y="-747.3" font-family="Times,serif" font-size="14.00" fill="#000000">Concatenate</text>
<polyline fill="none" stroke="#000000" points="461.0044,-729.5 461.0044,-773.5 "/>
<text text-anchor="middle" x="488.8389" y="-758.3" font-family="Times,serif" font-size="14.00" fill="#000000">input:</text>
<polyline fill="none" stroke="#000000" points="461.0044,-751.5 516.6733,-751.5 "/>
<text text-anchor="middle" x="488.8389" y="-736.3" font-family="Times,serif" font-size="14.00" fill="#000000">output:</text>
<polyline fill="none" stroke="#000000" points="516.6733,-729.5 516.6733,-773.5 "/>
<text text-anchor="middle" x="654.9116" y="-758.3" font-family="Times,serif" font-size="14.00" fill="#000000">[(?, 8, 128), (?, 8, 128), (?, 8, 128), (?, 8, 128)]</text>
<polyline fill="none" stroke="#000000" points="516.6733,-751.5 793.1499,-751.5 "/>
<text text-anchor="middle" x="654.4424" y="-736.3" font-family="Times,serif" font-size="14.00" fill="#000000">(?, 8, 512)</text>
</g>
<!-- 5239179728&#45;&gt;5238790352 -->
<g id="edge17" class="edge">
<title>5239179728&#45;&gt;5238790352</title>
<path fill="none" stroke="#000000" d="M328.9325,-810.4734C375.4629,-799.7356 431.5479,-786.7929 479.3076,-775.7714"/>
<polygon fill="#000000" stroke="#000000" points="480.0974,-779.1813 489.0542,-773.5222 478.5233,-772.3605 480.0974,-779.1813"/>
</g>
<!-- 5243526672&#45;&gt;5238790352 -->
<g id="edge18" class="edge">
<title>5243526672&#45;&gt;5238790352</title>
<path fill="none" stroke="#000000" d="M501.6349,-810.3664C515.0814,-800.8123 530.9628,-789.5281 545.2051,-779.4086"/>
<polygon fill="#000000" stroke="#000000" points="547.246,-782.2521 553.3706,-773.6068 543.1915,-776.5458 547.246,-782.2521"/>
</g>
<!-- 5246088720&#45;&gt;5238790352 -->
<g id="edge19" class="edge">
<title>5246088720&#45;&gt;5238790352</title>
<path fill="none" stroke="#000000" d="M668.0596,-810.3664C654.4952,-800.8123 638.4744,-789.5281 624.1072,-779.4086"/>
<polygon fill="#000000" stroke="#000000" points="626.0612,-776.5039 615.8701,-773.6068 622.0303,-782.2268 626.0612,-776.5039"/>
</g>
<!-- 5247597328&#45;&gt;5238790352 -->
<g id="edge20" class="edge">
<title>5247597328&#45;&gt;5238790352</title>
<path fill="none" stroke="#000000" d="M842.2194,-810.4734C795.2914,-799.7356 738.727,-786.7929 690.5591,-775.7714"/>
<polygon fill="#000000" stroke="#000000" points="691.258,-772.341 680.7292,-773.5222 689.6966,-779.1646 691.258,-772.341"/>
</g>
<!-- 5248818384 -->
<g id="node19" class="node">
<title>5248818384</title>
<polygon fill="none" stroke="#000000" points="488.1563,-648.5 488.1563,-692.5 680.8115,-692.5 680.8115,-648.5 488.1563,-648.5"/>
<text text-anchor="middle" x="519.8804" y="-666.3" font-family="Times,serif" font-size="14.00" fill="#000000">Conv1D</text>
<polyline fill="none" stroke="#000000" points="551.6045,-648.5 551.6045,-692.5 "/>
<text text-anchor="middle" x="579.439" y="-677.3" font-family="Times,serif" font-size="14.00" fill="#000000">input:</text>
<polyline fill="none" stroke="#000000" points="551.6045,-670.5 607.2734,-670.5 "/>
<text text-anchor="middle" x="579.439" y="-655.3" font-family="Times,serif" font-size="14.00" fill="#000000">output:</text>
<polyline fill="none" stroke="#000000" points="607.2734,-648.5 607.2734,-692.5 "/>
<text text-anchor="middle" x="644.0425" y="-677.3" font-family="Times,serif" font-size="14.00" fill="#000000">(?, 8, 512)</text>
<polyline fill="none" stroke="#000000" points="607.2734,-670.5 680.8115,-670.5 "/>
<text text-anchor="middle" x="644.0425" y="-655.3" font-family="Times,serif" font-size="14.00" fill="#000000">(?, 8, 128)</text>
</g>
<!-- 5238790352&#45;&gt;5248818384 -->
<g id="edge21" class="edge">
<title>5238790352&#45;&gt;5248818384</title>
<path fill="none" stroke="#000000" d="M584.4839,-729.3664C584.4839,-721.1516 584.4839,-711.6579 584.4839,-702.7252"/>
<polygon fill="#000000" stroke="#000000" points="587.984,-702.6068 584.4839,-692.6068 580.984,-702.6069 587.984,-702.6068"/>
</g>
<!-- 5250104272 -->
<g id="node20" class="node">
<title>5250104272</title>
<polygon fill="none" stroke="#000000" points="488.1563,-567.5 488.1563,-611.5 680.8115,-611.5 680.8115,-567.5 488.1563,-567.5"/>
<text text-anchor="middle" x="519.8804" y="-585.3" font-family="Times,serif" font-size="14.00" fill="#000000">Conv1D</text>
<polyline fill="none" stroke="#000000" points="551.6045,-567.5 551.6045,-611.5 "/>
<text text-anchor="middle" x="579.439" y="-596.3" font-family="Times,serif" font-size="14.00" fill="#000000">input:</text>
<polyline fill="none" stroke="#000000" points="551.6045,-589.5 607.2734,-589.5 "/>
<text text-anchor="middle" x="579.439" y="-574.3" font-family="Times,serif" font-size="14.00" fill="#000000">output:</text>
<polyline fill="none" stroke="#000000" points="607.2734,-567.5 607.2734,-611.5 "/>
<text text-anchor="middle" x="644.0425" y="-596.3" font-family="Times,serif" font-size="14.00" fill="#000000">(?, 8, 128)</text>
<polyline fill="none" stroke="#000000" points="607.2734,-589.5 680.8115,-589.5 "/>
<text text-anchor="middle" x="644.0425" y="-574.3" font-family="Times,serif" font-size="14.00" fill="#000000">(?, 8, 128)</text>
</g>
<!-- 5248818384&#45;&gt;5250104272 -->
<g id="edge22" class="edge">
<title>5248818384&#45;&gt;5250104272</title>
<path fill="none" stroke="#000000" d="M584.4839,-648.3664C584.4839,-640.1516 584.4839,-630.6579 584.4839,-621.7252"/>
<polygon fill="#000000" stroke="#000000" points="587.984,-621.6068 584.4839,-611.6068 580.984,-621.6069 587.984,-621.6068"/>
</g>
<!-- 5250103120 -->
<g id="node21" class="node">
<title>5250103120</title>
<polygon fill="none" stroke="#000000" points="488.1563,-486.5 488.1563,-530.5 680.8115,-530.5 680.8115,-486.5 488.1563,-486.5"/>
<text text-anchor="middle" x="519.8804" y="-504.3" font-family="Times,serif" font-size="14.00" fill="#000000">Conv1D</text>
<polyline fill="none" stroke="#000000" points="551.6045,-486.5 551.6045,-530.5 "/>
<text text-anchor="middle" x="579.439" y="-515.3" font-family="Times,serif" font-size="14.00" fill="#000000">input:</text>
<polyline fill="none" stroke="#000000" points="551.6045,-508.5 607.2734,-508.5 "/>
<text text-anchor="middle" x="579.439" y="-493.3" font-family="Times,serif" font-size="14.00" fill="#000000">output:</text>
<polyline fill="none" stroke="#000000" points="607.2734,-486.5 607.2734,-530.5 "/>
<text text-anchor="middle" x="644.0425" y="-515.3" font-family="Times,serif" font-size="14.00" fill="#000000">(?, 8, 128)</text>
<polyline fill="none" stroke="#000000" points="607.2734,-508.5 680.8115,-508.5 "/>
<text text-anchor="middle" x="644.0425" y="-493.3" font-family="Times,serif" font-size="14.00" fill="#000000">(?, 8, 128)</text>
</g>
<!-- 5250104272&#45;&gt;5250103120 -->
<g id="edge23" class="edge">
<title>5250104272&#45;&gt;5250103120</title>
<path fill="none" stroke="#000000" d="M584.4839,-567.3664C584.4839,-559.1516 584.4839,-549.6579 584.4839,-540.7252"/>
<polygon fill="#000000" stroke="#000000" points="587.984,-540.6068 584.4839,-530.6068 580.984,-540.6069 587.984,-540.6068"/>
</g>
<!-- 5250230352 -->
<g id="node22" class="node">
<title>5250230352</title>
<polygon fill="none" stroke="#000000" points="488.1563,-405.5 488.1563,-449.5 680.8115,-449.5 680.8115,-405.5 488.1563,-405.5"/>
<text text-anchor="middle" x="519.8804" y="-423.3" font-family="Times,serif" font-size="14.00" fill="#000000">Conv1D</text>
<polyline fill="none" stroke="#000000" points="551.6045,-405.5 551.6045,-449.5 "/>
<text text-anchor="middle" x="579.439" y="-434.3" font-family="Times,serif" font-size="14.00" fill="#000000">input:</text>
<polyline fill="none" stroke="#000000" points="551.6045,-427.5 607.2734,-427.5 "/>
<text text-anchor="middle" x="579.439" y="-412.3" font-family="Times,serif" font-size="14.00" fill="#000000">output:</text>
<polyline fill="none" stroke="#000000" points="607.2734,-405.5 607.2734,-449.5 "/>
<text text-anchor="middle" x="644.0425" y="-434.3" font-family="Times,serif" font-size="14.00" fill="#000000">(?, 8, 128)</text>
<polyline fill="none" stroke="#000000" points="607.2734,-427.5 680.8115,-427.5 "/>
<text text-anchor="middle" x="644.0425" y="-412.3" font-family="Times,serif" font-size="14.00" fill="#000000">(?, 8, 128)</text>
</g>
<!-- 5250103120&#45;&gt;5250230352 -->
<g id="edge24" class="edge">
<title>5250103120&#45;&gt;5250230352</title>
<path fill="none" stroke="#000000" d="M584.4839,-486.3664C584.4839,-478.1516 584.4839,-468.6579 584.4839,-459.7252"/>
<polygon fill="#000000" stroke="#000000" points="587.984,-459.6068 584.4839,-449.6068 580.984,-459.6069 587.984,-459.6068"/>
</g>
<!-- 5252551056 -->
<g id="node23" class="node">
<title>5252551056</title>
<polygon fill="none" stroke="#000000" points="488.1563,-324.5 488.1563,-368.5 680.8115,-368.5 680.8115,-324.5 488.1563,-324.5"/>
<text text-anchor="middle" x="519.8804" y="-342.3" font-family="Times,serif" font-size="14.00" fill="#000000">Conv1D</text>
<polyline fill="none" stroke="#000000" points="551.6045,-324.5 551.6045,-368.5 "/>
<text text-anchor="middle" x="579.439" y="-353.3" font-family="Times,serif" font-size="14.00" fill="#000000">input:</text>
<polyline fill="none" stroke="#000000" points="551.6045,-346.5 607.2734,-346.5 "/>
<text text-anchor="middle" x="579.439" y="-331.3" font-family="Times,serif" font-size="14.00" fill="#000000">output:</text>
<polyline fill="none" stroke="#000000" points="607.2734,-324.5 607.2734,-368.5 "/>
<text text-anchor="middle" x="644.0425" y="-353.3" font-family="Times,serif" font-size="14.00" fill="#000000">(?, 8, 128)</text>
<polyline fill="none" stroke="#000000" points="607.2734,-346.5 680.8115,-346.5 "/>
<text text-anchor="middle" x="644.0425" y="-331.3" font-family="Times,serif" font-size="14.00" fill="#000000">(?, 8, 128)</text>
</g>
<!-- 5250230352&#45;&gt;5252551056 -->
<g id="edge25" class="edge">
<title>5250230352&#45;&gt;5252551056</title>
<path fill="none" stroke="#000000" d="M584.4839,-405.3664C584.4839,-397.1516 584.4839,-387.6579 584.4839,-378.7252"/>
<polygon fill="#000000" stroke="#000000" points="587.984,-378.6068 584.4839,-368.6068 580.984,-378.6069 587.984,-378.6068"/>
</g>
<!-- 5248854672 -->
<g id="node24" class="node">
<title>5248854672</title>
<polygon fill="none" stroke="#000000" points="492.439,-243.5 492.439,-287.5 676.5288,-287.5 676.5288,-243.5 492.439,-243.5"/>
<text text-anchor="middle" x="519.8804" y="-261.3" font-family="Times,serif" font-size="14.00" fill="#000000">Flatten</text>
<polyline fill="none" stroke="#000000" points="547.3218,-243.5 547.3218,-287.5 "/>
<text text-anchor="middle" x="575.1563" y="-272.3" font-family="Times,serif" font-size="14.00" fill="#000000">input:</text>
<polyline fill="none" stroke="#000000" points="547.3218,-265.5 602.9907,-265.5 "/>
<text text-anchor="middle" x="575.1563" y="-250.3" font-family="Times,serif" font-size="14.00" fill="#000000">output:</text>
<polyline fill="none" stroke="#000000" points="602.9907,-243.5 602.9907,-287.5 "/>
<text text-anchor="middle" x="639.7598" y="-272.3" font-family="Times,serif" font-size="14.00" fill="#000000">(?, 8, 128)</text>
<polyline fill="none" stroke="#000000" points="602.9907,-265.5 676.5288,-265.5 "/>
<text text-anchor="middle" x="639.7598" y="-250.3" font-family="Times,serif" font-size="14.00" fill="#000000">(?, 1024)</text>
</g>
<!-- 5252551056&#45;&gt;5248854672 -->
<g id="edge26" class="edge">
<title>5252551056&#45;&gt;5248854672</title>
<path fill="none" stroke="#000000" d="M584.4839,-324.3664C584.4839,-316.1516 584.4839,-306.6579 584.4839,-297.7252"/>
<polygon fill="#000000" stroke="#000000" points="587.984,-297.6068 584.4839,-287.6068 580.984,-297.6069 587.984,-297.6068"/>
</g>
<!-- 5252581456 -->
<g id="node25" class="node">
<title>5252581456</title>
<polygon fill="none" stroke="#000000" points="497.8872,-162.5 497.8872,-206.5 671.0806,-206.5 671.0806,-162.5 497.8872,-162.5"/>
<text text-anchor="middle" x="523.3804" y="-180.3" font-family="Times,serif" font-size="14.00" fill="#000000">Dense</text>
<polyline fill="none" stroke="#000000" points="548.8735,-162.5 548.8735,-206.5 "/>
<text text-anchor="middle" x="576.708" y="-191.3" font-family="Times,serif" font-size="14.00" fill="#000000">input:</text>
<polyline fill="none" stroke="#000000" points="548.8735,-184.5 604.5425,-184.5 "/>
<text text-anchor="middle" x="576.708" y="-169.3" font-family="Times,serif" font-size="14.00" fill="#000000">output:</text>
<polyline fill="none" stroke="#000000" points="604.5425,-162.5 604.5425,-206.5 "/>
<text text-anchor="middle" x="637.8115" y="-191.3" font-family="Times,serif" font-size="14.00" fill="#000000">(?, 1024)</text>
<polyline fill="none" stroke="#000000" points="604.5425,-184.5 671.0806,-184.5 "/>
<text text-anchor="middle" x="637.8115" y="-169.3" font-family="Times,serif" font-size="14.00" fill="#000000">(?, 64)</text>
</g>
<!-- 5248854672&#45;&gt;5252581456 -->
<g id="edge27" class="edge">
<title>5248854672&#45;&gt;5252581456</title>
<path fill="none" stroke="#000000" d="M584.4839,-243.3664C584.4839,-235.1516 584.4839,-225.6579 584.4839,-216.7252"/>
<polygon fill="#000000" stroke="#000000" points="587.984,-216.6068 584.4839,-206.6068 580.984,-216.6069 587.984,-216.6068"/>
</g>
<!-- 5253592080 -->
<g id="node26" class="node">
<title>5253592080</title>
<polygon fill="none" stroke="#000000" points="499.0493,-81.5 499.0493,-125.5 669.9185,-125.5 669.9185,-81.5 499.0493,-81.5"/>
<text text-anchor="middle" x="530.3804" y="-99.3" font-family="Times,serif" font-size="14.00" fill="#000000">Dropout</text>
<polyline fill="none" stroke="#000000" points="561.7114,-81.5 561.7114,-125.5 "/>
<text text-anchor="middle" x="589.5459" y="-110.3" font-family="Times,serif" font-size="14.00" fill="#000000">input:</text>
<polyline fill="none" stroke="#000000" points="561.7114,-103.5 617.3804,-103.5 "/>
<text text-anchor="middle" x="589.5459" y="-88.3" font-family="Times,serif" font-size="14.00" fill="#000000">output:</text>
<polyline fill="none" stroke="#000000" points="617.3804,-81.5 617.3804,-125.5 "/>
<text text-anchor="middle" x="643.6494" y="-110.3" font-family="Times,serif" font-size="14.00" fill="#000000">(?, 64)</text>
<polyline fill="none" stroke="#000000" points="617.3804,-103.5 669.9185,-103.5 "/>
<text text-anchor="middle" x="643.6494" y="-88.3" font-family="Times,serif" font-size="14.00" fill="#000000">(?, 64)</text>
</g>
<!-- 5252581456&#45;&gt;5253592080 -->
<g id="edge28" class="edge">
<title>5252581456&#45;&gt;5253592080</title>
<path fill="none" stroke="#000000" d="M584.4839,-162.3664C584.4839,-154.1516 584.4839,-144.6579 584.4839,-135.7252"/>
<polygon fill="#000000" stroke="#000000" points="587.984,-135.6068 584.4839,-125.6068 580.984,-135.6069 587.984,-135.6068"/>
</g>
<!-- 5253591632 -->
<g id="node27" class="node">
<title>5253591632</title>
<polygon fill="none" stroke="#000000" points="504.8872,-.5 504.8872,-44.5 664.0806,-44.5 664.0806,-.5 504.8872,-.5"/>
<text text-anchor="middle" x="530.3804" y="-18.3" font-family="Times,serif" font-size="14.00" fill="#000000">Dense</text>
<polyline fill="none" stroke="#000000" points="555.8735,-.5 555.8735,-44.5 "/>
<text text-anchor="middle" x="583.708" y="-29.3" font-family="Times,serif" font-size="14.00" fill="#000000">input:</text>
<polyline fill="none" stroke="#000000" points="555.8735,-22.5 611.5425,-22.5 "/>
<text text-anchor="middle" x="583.708" y="-7.3" font-family="Times,serif" font-size="14.00" fill="#000000">output:</text>
<polyline fill="none" stroke="#000000" points="611.5425,-.5 611.5425,-44.5 "/>
<text text-anchor="middle" x="637.8115" y="-29.3" font-family="Times,serif" font-size="14.00" fill="#000000">(?, 64)</text>
<polyline fill="none" stroke="#000000" points="611.5425,-22.5 664.0806,-22.5 "/>
<text text-anchor="middle" x="637.8115" y="-7.3" font-family="Times,serif" font-size="14.00" fill="#000000">(?, 2)</text>
</g>
<!-- 5253592080&#45;&gt;5253591632 -->
<g id="edge29" class="edge">
<title>5253592080&#45;&gt;5253591632</title>
<path fill="none" stroke="#000000" d="M584.4839,-81.3664C584.4839,-73.1516 584.4839,-63.6579 584.4839,-54.7252"/>
<polygon fill="#000000" stroke="#000000" points="587.984,-54.6068 584.4839,-44.6068 580.984,-54.6069 587.984,-54.6068"/>
</g>
</g>
</svg>
